<svg xmlns="http://www.w3.org/2000/svg" xml:space="preserve" viewBox="376.07 484.24 527.47 155.48"><g paint-order="stroke"><path d="m30.43-4.13-16.7-49.25H5.76V0h2.69v-45.41L23.81 0h7.97l14.2-44.83V0h7.11v-53.38h-7.11v.1Zm49.54-22.56C79.97-12 91.49.86 105.79.86c14.31 0 25.83-12.86 25.83-27.55 0-14.69-11.52-27.55-25.83-27.55-14.21 0-25.82 12.86-25.82 27.55Zm7.1 0c0-13.25 8.35-24.86 18.72-24.86s18.72 11.61 18.72 24.86-8.35 24.87-18.72 24.87-18.72-11.62-18.72-24.87Zm71.43 0C158.5-12 170.02.86 184.32.86S210.14-12 210.14-26.69c0-14.69-11.52-27.55-25.82-27.55-14.21 0-25.82 12.86-25.82 27.55Zm7.1 0c0-13.25 8.35-24.86 18.72-24.86s18.72 11.61 18.72 24.86-8.35 24.87-18.72 24.87-18.72-11.62-18.72-24.87Zm88.13-26.69h-16.71V0h16.71c14.69 0 26.59-12 26.59-26.69 0-14.69-11.9-26.69-26.59-26.69Zm-3.55 50.69h-6.05v-48h6.05c12.76 0 23.04 10.75 23.04 24s-10.28 24-23.04 24Z" style="stroke:none;stroke-width:0;stroke-dasharray:none;stroke-linecap:butt;stroke-dashoffset:0;stroke-linejoin:miter;stroke-miterlimit:4;fill:#301724;fill-rule:nonzero;opacity:1" transform="matrix(1.92115 0 0 1.92115 365.003 588.441)"/></g><g paint-order="stroke"><path d="M31.81-15.57h-4.57V0h6.33c2.55-.03 4.62-2.1 4.62-4.65 0-2.41-1.85-4.39-4.2-4.62.81-.64 1.35-1.65 1.35-2.77 0-1.93-1.57-3.53-3.53-3.53Zm.7 14.79h-3.19v-7.73h3.19c1.99 0 3.61 1.73 3.61 3.86S34.5-.78 32.51-.78ZM30.77-9.3h-1.45v-5.48h1.45c1.37 0 2.49 1.23 2.49 2.74 0 1.51-1.12 2.74-2.49 2.74Zm34.22-5.48v-.79h-10V0h10v-.78h-7.93v-6.61h4.85v-.79h-4.85v-6.6Zm23.63-.79h-2.1L81.79 0h.78l1.65-5.4h5.41L91.28 0h2.07Zm.76 9.38h-4.93l2.46-8.09Zm22.84.31v-9.69h-2.07v9.69a6.13 6.13 0 0 0 6.13 6.13c3.42 0 6.16-2.74 6.16-6.13v-9.69h-.78v9.69c0 2.97-2.1 5.35-4.7 5.35-2.61 0-4.74-2.38-4.74-5.35Zm38.56-8.9v-.79h-11.54v.79h4.74V0h2.07v-14.78Zm22.37 6.07-3.5-6.86h-2.07l3.89 7.62V0h2.07v-7.95l3.9-7.62h-.79Z" style="stroke:none;stroke-width:0;stroke-dasharray:none;stroke-linecap:butt;stroke-dashoffset:0;stroke-linejoin:miter;stroke-miterlimit:4;fill:#000;fill-rule:nonzero;opacity:1" transform="matrix(1.92115 0 0 1.92115 546.339 639.236)"/></g></svg>